# xmcd
# Copyright (C) 1995-1998 Ti Kan
#
# Track frame offsets:
#       150
#       26125
#       50535
#       76275
#       99878
#       131484
#       163891
#       189649
#       220313
#       247577
#       272921
#       299909
#
# Disc length: 4427 seconds
#
# Revision: 0
# Processed by: cddbd v1.5.2PL0 Copyright (c) Steve Scherf et al.
# Submitted via: CD-Import v1.0
#
DISCID=b011490c
DTITLE=Der Dritte Raum - Klubraum
DYEAR=2003
DGENRE=
TTITLE0=Klubraum
TTITLE1=Neuhaus
TTITLE2=Hör Mich
TTITLE3=Tantzstanze
TTITLE4=Spurrillen
TTITLE5=Kerosin
TTITLE6=Diabolo
TTITLE7=Akkordarbeit
TTITLE8=Maze
TTITLE9=Überkritisch
TTITLE10=Verdoppelt
TTITLE11=Exuma
EXTD=
EXTT0=
EXTT1=
EXTT2=
EXTT3=
EXTT4=
EXTT5=
EXTT6=
EXTT7=
EXTT8=
EXTT9=
EXTT10=
EXTT11=
PLAYORDER=
